<svg id="Layer_1" xmlns="http://www.w3.org/2000/svg" viewBox="200 220 380 150"><style>.st0{fill:none}.st1,.st2{fill:#fff;stroke:#fff;stroke-width:.75;stroke-miterlimit:10}.st2{stroke-width:.25}.st3{fill:#e2231a}</style><path class="st0" d="M201.2 198h389.6v216H201.2z"/><path class="st1" d="M280.1 274.6h-20.4v64.9c0 1-.7 1.8-1.6 1.8h-1c-1 0-1.6-.9-1.6-1.8v-64.9H235c-1 0-1.8-.5-1.8-1.4v-.9c0-1 .8-1.6 1.8-1.6h45c1 0 1.8.7 1.8 1.6v.9c.1.9-.7 1.4-1.7 1.4zm23.2 18.9c-3.6 0-7.6.9-13.2 4.4v41.7c0 1-.9 1.8-1.8 1.8h-.6c-1 0-1.8-.9-1.8-1.8v-47.4c0-1 .7-1.9 1.7-1.9h.8c1 0 1.7.9 1.7 1.9v2c4.9-3.1 8.6-4.4 13.2-4.4 1.5 0 2.6.3 2.6 1.4v.8c-.1 1.2-1.1 1.5-2.6 1.5zm40.1 47.8h-.5c-1 0-1.9-.9-1.9-1.9V337c-4.7 2.6-10.3 4.8-16.2 4.8-7.1 0-14.6-3.4-14.6-15.3v-1.2c0-9.8 6.2-14.6 23.5-14.6h7.3v-3.4c0-9.9-2.8-13.8-12-13.8-6.3 0-9 .4-13.5.9-1 .1-2.2 0-2.2-1.4v-.6c0-1.2.8-1.5 2.2-1.7 4-.5 7.2-.9 13.5-.9 12.9 0 16.2 7.2 16.2 17.5v32.1c.1 1.1-.8 1.9-1.8 1.9zm-2.3-26.9h-7.3c-14.4 0-19.3 2.9-19.3 10.9v1.2c0 8.8 4.7 11.6 10.4 11.6 5.3 0 9.9-1.4 16.3-4.9v-18.8zm46.1 26.6c-4 .5-8.5.9-11.5.9-13.6 0-18.8-10.6-18.8-23v-6.4c0-12.6 5.2-22.7 18.8-22.7 3 0 7.5.4 11.5.9 1.4.2 1.8.7 1.8 1.7v.7c0 1-.9 1.5-2 1.3-4.5-.6-8.2-.9-11.3-.9-10.9 0-14.7 7.5-14.7 19v6.4c0 11.5 3.8 19.3 14.7 19.3 3.1 0 6.9-.3 11.3-.9 1.1-.2 2 .3 2 1.3v.7c0 1.1-.3 1.6-1.8 1.7zm42.5.9c-1.1 0-1.9-.2-2.9-1.1l-23-24.6v24c0 1-.9 1.8-1.8 1.8h-.6c-1 0-1.8-.9-1.8-1.8v-67.6c0-1 .9-1.8 1.8-1.8h.6c1 0 1.8.9 1.8 1.8v40l23.4-21.9c.7-.6 1.5-.9 2.3-.9 1.8 0 2.6 2 1.2 3.1l-23.3 21.3 23.4 24.7c1.2 1.3.7 3-1.1 3zm44-25.1h-32.2v2c0 16 7.7 19.4 17.2 19.4 4.2 0 9.4-.7 14.1-1.6 1-.2 2 0 2 1.2v.7c0 1-.4 1.5-1.8 1.8-4.6 1-10 1.6-14.3 1.6-11.8 0-21.4-5.1-21.4-23.1v-6.3c0-13.1 6.7-22.7 19.2-22.7 13.1 0 18.9 9.1 18.9 22.6v2.6c.1 1-.8 1.8-1.7 1.8zm-2.4-4.4c0-12-4-18.9-14.8-18.9-10.6 0-15 7.7-15 19v.5h29.8v-.6zm33.2-18.9c-3.6 0-7.6.9-13.2 4.4v41.7c0 1-.9 1.8-1.8 1.8h-.6c-1 0-1.8-.9-1.8-1.8v-47.4c0-1 .7-1.9 1.7-1.9h.8c1 0 1.7.9 1.7 1.9v2c4.9-3.1 8.6-4.4 13.2-4.4 1.5 0 2.6.3 2.6 1.4v.8c0 1.2-1.1 1.5-2.6 1.5z"/><path class="st2" d="M512.1 336.7h-1.7v5.8c0 .1-.1.3-.3.3h-.5c-.2 0-.3-.1-.3-.3v-5.8h-1.7c-.1 0-.3-.1-.3-.2v-.5c0-.2.1-.3.3-.3h4.4c.1 0 .3.1.3.3v.4c.1.2 0 .3-.2.3zm7.5 6h-.7c-.1 0-.2-.1-.2-.2v-4.1c0-1.4-.2-1.8-1.8-1.8v5.9c0 .1-.1.2-.2.2h-.7c-.1 0-.2-.1-.2-.2v-5.9c-.7 0-1.3.1-1.8.1v5.8c0 .1-.1.2-.2.2h-.7c-.1 0-.2-.1-.2-.2v-6.3c0-.2.1-.3.3-.3 1-.1 2.1-.2 3.1-.2 2.4 0 3.4.4 3.4 2.7v4.1c.1.1 0 .2-.1.2z"/><path class="st3" d="M548.7 240.6l-14 52.1h-5.1l14-52.1h5.1zm-15.8 7.2l-9.1 33.9h-5.1l9.1-33.9h5.1zm-16.1 7.3l-4.3 16h-5.1l4.3-16h5.1z" id="XMLID_5_"/></svg>